<svg width="845.7243" height="704.03133" xmlns="http://www.w3.org/2000/svg">

 <g>
  <title>background</title>
  <rect fill="none" id="canvas_background" height="602" width="802" y="-1" x="-1"/>
 </g>
 <g>
  <title>Layer 1</title>
  <g id="f1503154-f50a-4680-8aa4-587be41cac87">
   <path fill="#feb8b8" d="m596.74543,628.06226l-1.26666,16.89311l-25.75972,-8.44612l10.55549,-12.66918l16.47089,4.2222z" id="a9e5a31c-10e6-4175-9779-4994367672f7"/>
   <path fill="#feb8b8" d="m690.4981,622.57254l-1.26925,16.46916l-14.35806,2.11196l-8.44612,-8.0239l9.71278,-15.62558l14.36066,5.06837z" id="f499a4aa-6a35-40fc-8432-e4c7ab26d048"/>
   <path fill="#324c4d" d="m701.05533,412.2648s11.40252,13.51362 -2.9564,34.20671s-31.67252,40.96395 -31.67252,40.96395l-32.09907,60.81173s-16.47002,59.54507 -20.27087,61.23395s-5.91194,-5.0675 -3.80084,2.1111s0.84444,6.75724 -0.84444,7.18119s-6.33416,-0.42222 -4.64528,2.53418s2.9564,2.9564 -0.42222,2.9564s-4.64528,-2.1111 -4.64528,0.84444s-2.9564,9.71278 -2.9564,9.71278s-20.69308,-5.91194 -21.53752,-8.44612s5.48972,-3.80084 4.22306,-6.33416s-1.68888,-2.53418 -1.68888,-6.33416s2.53418,-4.64528 2.53418,-4.64528s2.1111,-0.84444 1.26666,-2.53418s-4.22306,-0.84444 0,-2.9564s21.53925,-66.7254 21.53925,-66.7254s0,-32.09907 5.48972,-42.65456s1.26666,-85.72788 14.36239,-86.57232s78.12446,4.64615 78.12446,4.64615z" id="fb70bf31-eafd-4d8a-8310-5130d8d104e1"/>
   <path fill="#324c4d" d="m696.83223,436.33564l-2.53418,65.45701s12.66918,63.34591 8.44612,82.77147s-1.26666,16.89224 -3.80084,20.27087s-4.64528,1.68888 -2.53418,4.64528s3.3743,3.80084 0,7.18119s-5.0675,11.40252 -5.0675,11.40252l-21.53752,-2.1111s5.48972,-9.71278 3.3743,-11.82474s-7.60168,1.26666 -3.3743,-3.3743s6.75724,-2.53418 4.22306,-4.64528s-6.33416,-1.26666 -2.9564,-4.64528s7.18119,-3.3743 3.80084,-4.64528s-7.18119,0 -5.48972,-2.53418s3.80084,-5.48972 3.80084,-5.48972l-5.0675,-38.42977s-5.91194,-12.66918 -4.22306,-18.1589s-7.18119,-50.67673 -7.18119,-50.67673l40.12124,-45.19307z" id="a89455c2-275d-4b70-b13c-192fbe474176"/>
   <path fill="#2f2e41" d="m687.54343,631.0178s4.22306,-4.22306 5.48972,-1.68888s10.55549,25.33837 5.0675,27.02724s-13.51362,3.3743 -17.73668,2.1111s-13.0914,-7.18119 -23.64862,-7.18119s-19.42556,-4.64528 -19.42556,-6.33416s-1.68888,-11.82474 6.33416,-11.82474s22.80418,-9.29056 22.80418,-9.29056s3.3743,-6.75724 5.0675,-6.33416s0.42222,13.93584 0.42222,13.93584s9.71105,9.2923 15.62558,-0.42049z" id="a3024be5-ad86-493a-9bfb-258ab58160a1"/>
   <path fill="#2f2e41" d="m593.78991,636.50753s3.80084,-9.29056 7.60168,-7.18119s1.26666,28.29217 1.26666,28.29217s-3.3743,5.48972 -13.0914,4.22306s-35.47337,-4.22306 -41.38617,-2.9564s-21.95974,-5.91194 -17.73668,-15.62558c0,0 2.1111,-5.48972 12.24696,-5.0675s28.71699,-11.82474 28.71699,-11.82474s2.9564,-8.44612 3.80084,-7.60168s1.68888,15.62558 1.68888,15.62558s10.9803,7.18379 16.89224,2.11629z" id="a57c92ce-496a-44de-934b-3ddd78679762"/>
   <circle fill="#f7b5a1" r="24.49393" cy="222.65014" cx="649.11193" id="fa315d33-3eeb-4d45-ab88-aeb0e9694c5a"/>
   <path fill="#f7b5a1" d="m668.11529,224.33902s13.0914,26.1828 17.73668,28.71699s-31.67252,18.15977 -31.67252,18.15977s-5.91194,-25.76058 -13.0914,-31.2503s27.02724,-15.62645 27.02724,-15.62645z" id="fbae87ba-2986-46ef-9932-134b7e0cae24"/>
   <path fill="#feb8b8" d="m630.53079,438.44673l-1.68888,16.0478s-18.1589,-6.33416 -12.24696,-18.1589l13.93584,2.1111z" id="fc15680c-e415-4000-ac02-b1f296562473"/>
   <path fill="#d8e5e6" d="m623.35393,414.3759c12.66918,13.51016 79.81248,2.10764 79.81248,2.10764l-0.84098,-9.71192l8.44612,-8.86228l-2.53245,-41.38877s7.59649,-19.42383 8.86228,-48.98526a26.63119,26.63119 0 0 0 -0.32705,-5.43175c-4.35371,-26.4813 -47.47375,-43.53707 -48.65821,-43.13648c-0.59613,0.1964 -6.94326,3.50408 -13.56726,6.98393c-7.60428,3.99465 -15.56848,8.21944 -15.56848,8.21944c-10.13673,3.8069 -8.44612,64.61949 -11.82734,70.10835s0,24.48527 0,24.48527l-3.79825,18.15804s-12.67348,13.94361 -0.00087,27.45379z" id="ae3770ab-4aa4-41b9-9f4d-4c69df699916"/>
   <path opacity="0.1" d="m664.28244,280.3108s11.82474,35.47337 9.29056,59.54507s-29.98365,92.90734 -29.98365,92.90734l-9.28623,5.0675l0,11.82388l-6.53489,-17.70034l17.97029,-37.57408s-22.42352,-129.69408 18.54392,-114.06937z" id="b41fb511-fd5e-48e5-b733-0d9230f6b6d5"/>
   <path opacity="0.1" d="m653.19224,269.66707c12.25215,-6.75551 30.83501,10.98809 50.2597,29.98538c6.97614,6.8204 11.01059,6.1343 13.32414,2.45026c-4.35371,-26.4813 -47.47375,-43.53707 -48.65821,-43.13648c-0.59613,0.1964 -6.94326,3.50408 -13.56726,6.98393l-1.35837,3.71692z" id="efbdbf49-3b58-4bc5-8391-5fbab31acdf7"/>
   <path fill="#f0f0f0" d="m653.19827,266.40265l5.0675,-13.93584s34.62893,-16.47002 57.43311,0l3.80084,23.64862s3.3743,39.27421 -16.0478,20.27087s-38.0084,-36.74089 -50.25365,-29.98365z" id="a2828270-d54b-4ede-bb2b-8639f55947f0"/>
   <path fill="#d8e5e6" d="m663.04865,274.59353s11.82474,35.47337 9.29056,59.54507s-29.98365,92.90734 -29.98365,92.90734l-9.29056,5.07096l0,11.82474l-19.42556,-5.48972l4.22306,-13.93584s-6.75724,-8.44612 -2.1111,-10.9803s3.80084,-16.47002 3.80084,-16.47002s2.53244,-138.09781 43.4964,-122.47223z" id="f68da632-d878-40c3-a103-67cfc5c970db"/>
   <path fill="#2f2e41" d="m670.94797,232.90368c-0.39972,-1.89307 -0.34608,-3.92976 -1.25282,-5.63853c-1.36097,-2.56187 -4.48868,-3.63386 -7.37933,-3.8865c-3.6901,-0.32099 -7.40788,0.31753 -11.10316,0.06489s-7.64235,-1.66119 -9.48177,-4.87542c-0.73369,-1.28223 -1.09535,-2.79201 -2.0687,-3.9038c-2.02544,-2.31356 -5.71727,-1.95536 -8.62781,-0.96384s-5.94655,2.43988 -8.92198,1.66465c-2.50217,-7.00037 0.57882,-15.07532 5.90761,-20.25875s12.51518,-7.97286 19.65311,-10.05194c9.41429,-2.7427 20.00871,-4.36322 28.66421,0.24399c12.55151,6.68024 16.98049,24.36242 15.82285,37.5412c-0.43779,4.98184 -1.15332,10.62298 -5.18084,13.98602c-5.90245,4.92992 -14.24905,4.50684 -16.03137,-3.92197z" id="f57115f6-7f5b-4177-880b-f5eff1305e5b"/>
   <rect fill="#e6e6e6" height="338.81995" width="529.03853" y="47.2008" x="44.22669" id="e1abf0e4-070b-4c82-8a12-ebedd4e3db02"/>
   <rect fill="#fff" height="276.27867" width="498.78321" y="89.69703" x="60.08432" id="ace8bea0-82e8-49b8-a50c-1e1cb532084f"/>
   <rect fill-opacity="0.75" x="44" y="46.90057" fill="#ef6b45" height="22.47541" width="529.03853" id="b540f353-e277-4512-bc56-a133cea2858b"/>
   <circle fill="#fff" r="4.16595" cy="58.39135" cx="60.70277" id="b2b285b5-c1c3-4b12-9710-2898c7239781"/>
   <circle fill="#fff" r="4.16595" cy="58.39135" cx="76.51438" id="a5a428bb-42a2-4f57-9e6c-9979c01a2490"/>
   <circle fill="#fff" r="4.16595" cy="58.39135" cx="92.32598" id="a9929a25-14ce-4464-bac9-4165f1e3fae6"/>
   <path fill-opacity="0.75" fill="#ef6b45" d="m148.34795,128.42096l-32.99283,32.58099l32.99283,32.58012l7.42345,-7.42345l-24.94816,-24.95162l25.15667,-25.15667l-7.63196,-7.62937z" id="b4a2d72b-abc3-4d2f-a2b8-a2aff6897b26"/>
   <path fill-opacity="0.75" fill="#ef6b45" d="m175.38125,128.42096l32.99196,32.58099l-32.99196,32.58012l-7.42345,-7.42345l24.94989,-24.95075l-25.1584,-25.15754l7.63196,-7.62937z" id="b5120d89-6cbe-4bfa-9a1b-cf9b07deff91"/>
   <path fill="#e6e6e6" d="m282.09896,136.59714c-2.69857,0 -4.88581,1.55218 -4.88581,3.46601s2.18724,3.46601 4.88581,3.46601l230.32943,0c2.69857,0 4.88581,-1.55218 4.88581,-3.46601s-2.18724,-3.46601 -4.88581,-3.46601l-230.32943,0z" id="a31271bd-8e2f-469b-8cee-8b6db3f92f99"/>
   <path fill="#e6e6e6" d="m510.13822,326.49125l-387.47125,0c-3.9609,0 -7.17081,-2.28673 -7.17514,-5.1047l0,-68.38746c0.00433,-2.81797 3.21423,-5.1047 7.17514,-5.1047l387.47125,0c3.9609,0 7.17081,2.28673 7.17514,5.1047l0,68.38659c-0.00346,2.81799 -3.21423,5.10212 -7.17514,5.10557zm-387.47125,-76.55671c-2.37672,0 -4.30266,1.37221 -4.30526,3.06282l0,68.38659c0,1.69061 1.92854,3.06109 4.30526,3.06282l387.47125,0c2.37672,0 4.30266,-1.37221 4.30526,-3.06282l0,-68.38486c0,-1.69061 -1.92854,-3.06109 -4.30526,-3.06282l-387.47125,-0.00173z" id="bf577952-0fd5-43e0-be6b-ea1966b51a93"/>
   <circle fill="#e6e6e6" r="17.33522" cy="287.16341" cx="162.56757" id="f7f4957b-eaa8-456b-bf02-bacf7de3ef80"/>
   <path fill-opacity="0.75" fill="#ef6b45" d="m211.46027,273.29937a3.46601,3.46601 0 0 0 -0.00897,6.93201l163.41224,0a3.46601,3.46601 0 0 0 0,-6.93201l-163.40326,0z" id="fb0f055d-da6e-47f2-bb6d-7ff26d7b746a"/>
   <path fill-opacity="0.75" fill="#ef6b45" d="m211.46027,294.0963a3.46601,3.46601 0 0 0 -0.00897,6.93201l70.32063,0a3.46601,3.46601 0 0 0 0.00898,-6.93201l-70.32064,0z" id="bfcde504-8c45-4d21-843b-87b1f7e22ce0"/>
   <path fill="#e6e6e6" d="m280.41703,157.36203a3.47726,3.47726 0 0 0 0,6.93201l150.95215,0a3.47726,3.47726 0 0 0 0,-6.93201l-150.95215,0z" id="a66699ea-75f1-4575-b6d5-52b0b1f8e30c"/>
   <path fill="#e6e6e6" d="m281.41024,178.12693c-2.31788,0 -4.1971,1.55218 -4.1971,3.46601s1.87922,3.46601 4.1971,3.46601l197.87216,0c2.31788,0 4.1971,-1.55218 4.1971,-3.46601s-1.87922,-3.46601 -4.1971,-3.46601l-197.87216,0z" id="bbc4ca7b-25d4-4c7e-b3d4-0411f69bd48f"/>
  </g>
 </g>
</svg>